# Blender v2.75 (sub 0) OBJ File: 'MouseCursor.blend'
# www.blender.org
mtllib MouseCursor.mtl
o MouseCursor_Cube
v 0.087295 0.120262 -0.387164
v 0.091755 0.396562 0.005983
v 0.085719 0.318063 -0.526158
v 0.090178 0.594362 -0.133012
v 0.401864 0.305972 -0.126452
v 0.400287 0.503772 -0.265447
v 0.000576 0.427342 0.050819
v -0.004380 0.120262 -0.386124
v -0.096056 0.120262 -0.385084
v -0.091596 0.396562 0.008063
v -0.001000 0.625142 -0.088176
v -0.005957 0.318063 -0.525118
v -0.097633 0.318063 -0.524078
v -0.093173 0.594362 -0.130932
v 0.007747 0.871570 0.682910
v -0.404629 0.305972 -0.117303
v 0.006170 1.069370 0.543915
v -0.406206 0.503772 -0.256298
vn 0.006500 -0.818200 0.574900
vn -0.006500 0.818200 -0.574900
vn -0.009300 -0.575000 -0.818100
vn 0.999900 -0.000000 -0.011300
vn 0.928700 0.218100 0.299800
vn -0.459500 -0.513100 -0.725000
vn -0.999900 0.000000 0.011300
vn -0.921700 0.218100 0.320800
vn 0.442900 -0.513100 -0.735200
usemtl mouseCursor
s off
f 7//1 8//1 1//1 2//1
f 11//2 4//2 3//2 12//2
f 8//3 12//3 3//3 1//3
f 1//4 3//4 4//4 2//4
f 17//5 15//5 5//5 6//5
f 2//6 4//6 6//6 5//6
f 4//2 11//2 17//2 6//2
f 2//1 5//1 15//1 7//1
f 7//1 10//1 9//1 8//1
f 11//2 12//2 13//2 14//2
f 8//3 9//3 13//3 12//3
f 9//7 10//7 14//7 13//7
f 17//8 18//8 16//8 15//8
f 10//9 16//9 18//9 14//9
f 14//2 18//2 17//2 11//2
f 10//1 7//1 15//1 16//1
