# Blender v2.79 (sub 0) OBJ File: 'PaintTool.blend'
# www.blender.org
mtllib PaintTool.mtl
o VoxelPlate_Cylinder.001
v -0.000000 -0.099203 -1.140393
v -0.000000 -0.001371 -1.140393
v 0.222480 -0.099203 -1.118481
v 0.222480 -0.001371 -1.118481
v 0.436410 -0.099203 -1.053586
v 0.436410 -0.001371 -1.053586
v 0.633569 -0.099203 -0.948202
v 0.633569 -0.001371 -0.948202
v 0.806380 -0.099203 -0.806380
v 0.806380 -0.001371 -0.806380
v 0.948202 -0.099203 -0.633569
v 0.948202 -0.001371 -0.633569
v 1.053586 -0.099203 -0.436410
v 1.053586 -0.001371 -0.436410
v 1.118481 -0.099203 -0.222480
v 1.118481 -0.001371 -0.222480
v 1.140393 -0.099203 -0.000000
v 1.140393 -0.001371 -0.000000
v 1.118481 -0.099203 0.222480
v 1.118481 -0.001371 0.222480
v 1.053586 -0.099203 0.436410
v 1.053586 -0.001371 0.436410
v 0.948202 -0.099203 0.633569
v 0.948202 -0.001371 0.633569
v 0.806380 -0.099203 0.806380
v 0.806380 -0.001371 0.806380
v 0.633569 -0.099203 0.948202
v 0.633569 -0.001371 0.948202
v 0.436409 -0.099203 1.053586
v 0.436409 -0.001371 1.053586
v 0.222479 -0.099203 1.118481
v 0.222479 -0.001371 1.118481
v -0.000000 -0.099203 1.140393
v -0.000000 -0.001371 1.140393
v -0.222480 -0.086484 1.118481
v -0.222480 -0.001371 1.118481
v -0.436410 -0.086484 1.053586
v -0.436410 -0.001371 1.053586
v -0.633569 -0.086484 0.948202
v -0.633569 -0.001371 0.948202
v -0.806380 -0.086484 0.806379
v -0.806380 -0.001371 0.806379
v -0.948203 -0.086484 0.633568
v -0.948203 -0.001371 0.633568
v -1.053586 -0.086484 0.436409
v -1.053586 -0.001371 0.436409
v -1.118481 -0.086484 0.222479
v -1.118481 -0.001371 0.222479
v -1.140393 -0.086484 -0.000001
v -1.140393 -0.001371 -0.000001
v -1.118481 -0.086484 -0.222481
v -1.118481 -0.001371 -0.222481
v -1.053586 -0.086484 -0.436411
v -1.053586 -0.001371 -0.436411
v -0.948202 -0.086484 -0.633570
v -0.948202 -0.001371 -0.633570
v -0.806379 -0.086484 -0.806381
v -0.806379 -0.001371 -0.806381
v -0.633567 -0.086484 -0.948203
v -0.633567 -0.001371 -0.948203
v -0.436408 -0.086484 -1.053587
v -0.436408 -0.001371 -1.053587
v -0.222478 -0.086484 -1.118481
v -0.222478 -0.001371 -1.118481
vn 0.0980 0.0000 -0.9952
vn 0.2903 0.0000 -0.9569
vn 0.4714 0.0000 -0.8819
vn 0.6344 0.0000 -0.7730
vn 0.7730 0.0000 -0.6344
vn 0.8819 0.0000 -0.4714
vn 0.9569 0.0000 -0.2903
vn 0.9952 0.0000 -0.0980
vn 0.9952 0.0000 0.0980
vn 0.9569 0.0000 0.2903
vn 0.8819 0.0000 0.4714
vn 0.7730 0.0000 0.6344
vn 0.6344 0.0000 0.7730
vn 0.4714 0.0000 0.8819
vn 0.2903 0.0000 0.9569
vn 0.0980 0.0000 0.9952
vn -0.0980 0.0000 0.9952
vn -0.2903 0.0000 0.9569
vn -0.4714 0.0000 0.8819
vn -0.6344 0.0000 0.7730
vn -0.7730 0.0000 0.6344
vn -0.8819 0.0000 0.4714
vn -0.9569 0.0000 0.2903
vn -0.9952 0.0000 0.0980
vn -0.9952 0.0000 -0.0980
vn -0.9569 0.0000 -0.2903
vn -0.8819 0.0000 -0.4714
vn -0.7730 0.0000 -0.6344
vn -0.6344 0.0000 -0.7730
vn -0.4714 0.0000 -0.8819
vn 0.0000 1.0000 -0.0000
vn -0.0980 0.0000 -0.9952
vn -0.2903 0.0000 -0.9569
vn -0.0071 -1.0000 -0.0000
usemtl VoxelPlate
s off
f 1//1 2//1 4//1 3//1
f 3//2 4//2 6//2 5//2
f 5//3 6//3 8//3 7//3
f 7//4 8//4 10//4 9//4
f 9//5 10//5 12//5 11//5
f 11//6 12//6 14//6 13//6
f 13//7 14//7 16//7 15//7
f 15//8 16//8 18//8 17//8
f 17//9 18//9 20//9 19//9
f 19//10 20//10 22//10 21//10
f 21//11 22//11 24//11 23//11
f 23//12 24//12 26//12 25//12
f 25//13 26//13 28//13 27//13
f 27//14 28//14 30//14 29//14
f 29//15 30//15 32//15 31//15
f 31//16 32//16 34//16 33//16
f 33//17 34//17 36//17 35//17
f 35//18 36//18 38//18 37//18
f 37//19 38//19 40//19 39//19
f 39//20 40//20 42//20 41//20
f 41//21 42//21 44//21 43//21
f 43//22 44//22 46//22 45//22
f 45//23 46//23 48//23 47//23
f 47//24 48//24 50//24 49//24
f 49//25 50//25 52//25 51//25
f 51//26 52//26 54//26 53//26
f 53//27 54//27 56//27 55//27
f 55//28 56//28 58//28 57//28
f 57//29 58//29 60//29 59//29
f 59//30 60//30 62//30 61//30
f 4//31 2//31 64//31 62//31 60//31 58//31 56//31 54//31 52//31 50//31 48//31 46//31 44//31 42//31 40//31 38//31 36//31 34//31 32//31 30//31 28//31 26//31 24//31 22//31 20//31 18//31 16//31 14//31 12//31 10//31 8//31 6//31
f 63//32 64//32 2//32 1//32
f 61//33 62//33 64//33 63//33
f 1//34 3//34 5//34 7//34 9//34 11//34 13//34 15//34 17//34 19//34 21//34 23//34 25//34 27//34 29//34 31//34 33//34 35//34 37//34 39//34 41//34 43//34 45//34 47//34 49//34 51//34 53//34 55//34 57//34 59//34 61//34 63//34
o ArrowTop_Plane.003
v 0.003173 0.000395 -1.748036
v 0.003173 0.000395 -1.748036
v -0.309911 -0.002328 -1.338647
v 0.316031 0.000702 -1.338413
v 0.003173 -0.100603 -1.748036
v 0.003173 -0.100603 -1.748036
v -0.309911 -0.099368 -1.337510
v 0.316031 -0.101088 -1.337276
vn -0.0048 1.0000 0.0029
vn -0.0027 -1.0000 0.0009
vn 0.0000 0.0000 1.0000
vn 0.7951 -0.0034 -0.6064
vn -0.0004 0.0114 0.9999
vn -0.7947 -0.0035 -0.6069
usemtl Arrow
s off
f 66//35 67//35 68//35 65//35
f 70//36 69//36 72//36 71//36
f 65//37 69//37 70//37 66//37
f 68//38 72//38 69//38 65//38
f 67//39 71//39 72//39 68//39
f 66//40 70//40 71//40 67//40
o ArrowRight_Plane.002
v -1.513278 -0.002019 0.000970
v -1.513278 -0.002019 0.000970
v -1.218424 -0.001721 -0.291871
v -1.218200 -0.002446 0.293581
v -1.513278 -0.096479 0.000052
v -1.513278 -0.096479 0.000052
v -1.218424 -0.096181 -0.292789
v -1.218200 -0.096906 0.294053
vn 0.0002 1.0000 0.0012
vn -0.0002 -1.0000 -0.0012
vn 0.0000 0.0000 1.0000
vn -0.7050 -0.0017 0.7092
vn 1.0000 0.0000 -0.0004
vn -0.7047 0.0069 -0.7095
usemtl Arrow
s off
f 74//41 73//41 76//41 75//41
f 78//42 79//42 80//42 77//42
f 73//43 74//43 78//43 77//43
f 76//44 73//44 77//44 80//44
f 75//45 76//45 80//45 79//45
f 74//46 75//46 79//46 78//46
o ArrowLeft_Plane
v 1.538807 -0.001040 -0.008159
v 1.538807 -0.001040 -0.008159
v 1.232827 -0.000731 -0.312050
v 1.232594 -0.000961 0.293707
v 1.538807 -0.099064 -0.009112
v 1.538807 -0.099064 -0.009112
v 1.232827 -0.098755 -0.313003
v 1.232594 -0.098985 0.294541
vn 0.0006 1.0000 0.0004
vn -0.0006 -1.0000 -0.0004
vn 0.0000 0.0000 1.0000
vn 0.7031 -0.0004 0.7111
vn -1.0000 0.0000 -0.0004
vn 0.7047 0.0069 -0.7095
usemtl Arrow
s off
f 82//47 83//47 84//47 81//47
f 86//48 85//48 88//48 87//48
f 81//49 85//49 86//49 82//49
f 84//50 88//50 85//50 81//50
f 83//51 87//51 88//51 84//51
f 82//52 86//52 87//52 83//52
